<?xml version="1.0" encoding="utf-8"?>
<!-- Generator: Adobe Illustrator 20.1.0, SVG Export Plug-In . SVG Version: 6.00 Build 0)  -->
<svg version="1.1" xmlns="http://www.w3.org/2000/svg" xmlns:xlink="http://www.w3.org/1999/xlink" x="0px" y="0px"
	 viewBox="0 0 78.1 93.4" style="enable-background:new 0 0 78.1 93.4;" xml:space="preserve">
<style type="text/css">
	.st0{display:none;}
	.st1{fill:#FFFFFF;}
</style>
<g id="BG">
</g>
<g id="Layer_3" class="st0">
</g>
<g id="Navbar">
</g>
<g id="Solid_Layer">
</g>
<g id="Forms__x26__Text">
	<g>
		<path class="st1" d="M49.8,72.5c0.3,0.4,0.9,0.5,1.3,0.1c1.7-1.3,3.7-2,5.8-2c2.2,0,4.2,0.7,5.9,2.1c0.2,0.1,0.4,0.2,0.6,0.2
			c0.3,0,0.5-0.1,0.7-0.3c0.3-0.4,0.3-1-0.1-1.3c-0.7-0.6-1.5-1-2.3-1.4c0.4-0.5,0.6-1.1,0.4-1.8c-0.9-2.2-3.1-3.7-5.5-3.7
			c-2.5,0-4.6,1.5-5.5,3.7c-0.3,0.8,0,1.7,0.7,2.1c-0.6,0.3-1.2,0.7-1.7,1.1C49.5,71.5,49.5,72.1,49.8,72.5L49.8,72.5z M24.3,27.5
			c-0.6,0.1-1.9,0.7-1.9,1.4v11.8c0,0.8,1.7,1.4,2.5,1.4c0.8,0,2.5-0.6,2.5-1.4v-6l3.1,6.6c0.2,0.5,0.6,0.8,1.1,0.8
			c0.1,0,0.4,0,0.5,0c0.6-0.2,1.2-0.7,1.2-1.4v-7.3l3.1,7.8c0.3,0.6,1.5,0.9,2.2,0.8c0.6-0.1,1.7-0.7,1.7-1.4v-7.3l2.6,7.8
			c0.3,0.6,0.8,0.9,1.4,0.8c0.6-0.1,1-0.7,1-1.4v-7.3l3.1,7.8c0.3,0.6,1.5,0.9,2.2,0.8c0.6-0.1,1.7-0.7,1.7-1.4V28.9
			c0-0.8-2.2-1.4-3-1.4c-0.8,0-3,0.6-3,1.4v5L43.9,26c-0.3-0.6-0.8-0.9-1.5-0.8c-0.6,0.1-1,0.7-1,1.4v7.3l-3-7.8
			c-0.3-0.6-1.6-0.9-2.2-0.8c-0.6,0.1-1.8,0.7-1.8,1.4v7.3L31.9,26c-0.3-0.6,0.2-0.9-0.5-0.8c-0.6,0.1,0,0.7,0,1.4v8.3L27,28.2
			C26.7,27.7,24.9,27.4,24.3,27.5L24.3,27.5z M15.2,72.5c0.2,0.2,0.5,0.3,0.7,0.3c0.2,0,0.4-0.1,0.6-0.2c1.7-1.4,3.7-2.1,5.9-2.1
			c2.2,0,4.2,0.7,5.9,2.1c0.4,0.3,1,0.3,1.3-0.1c0.3-0.4,0.3-1-0.1-1.3c-0.6-0.4-1.1-0.8-1.8-1.2c0.7-0.5,0.9-1.5,0.5-2.4
			c-0.9-2-3.2-3.3-5.4-3.3c-2.2,0-5.9,1.8-5.6,4.5c0,0.4,0.2,0.7,0.6,1c-0.8,0.4-1.6,0.9-2.4,1.5C14.9,71.5,14.8,72.1,15.2,72.5
			L15.2,72.5z M71.4,57.8V53c0-2.1-2-3.8-7-5v-3.2c0-5.5-5-9.9-11-9.9v3.2c0,0,0.9,0,1.2,0.1c3.2,0.5,5.8,3.3,5.8,6.6v2.3
			c0,0-6.3-1.9-22.2-1.9c-7.9,0-15.1,0.6-20.5,1.6c-1.1,0.2-2.3,0.4-3.3,0.8v-2.7c0-3.3,2.1-6.1,5.2-6.6c0.4-0.1,0.8-0.1,0.8-0.1
			v-1.6v0v-1.6c-5,0-8,4.5-8,9.9v3.8c-4,1-5,2.4-5,4.4v4.8c-2,0.8-7.4,4.5-7.4,8.9c0,4.5,3.2,8,7.5,8.7c0.7,5.3,5.3,9.2,10.8,9.2
			h12.2c0.9,0,1.6-0.6,1.6-1.5l0,0c0-0.9-0.7-1.5-1.6-1.5H18.3c-4.1,0-5.9-3.1-5.9-7.1v-7c0-0.9-1.6-1.6-2.5-1.6
			c-0.9,0-2.5,0.7-2.5,1.6v4.7c-2-0.7-4.2-2.9-4.2-5.5c0-3.2,3.5-5.8,6.7-5.8c0.9,0,2.5-0.7,2.5-1.6V53c0,0-0.4-1.7,7-3
			c5.2-1,11.9-1.5,19.6-1.5c7.6,0,14.6,0.6,19.8,1.5c7.4,1.4,7.6,3,7.6,3v6.3c0,0.9,0.9,1.6,1.8,1.6c3.2,0,6.6,2.6,6.6,5.8
			c0,2.6-2.4,4.8-3.4,5.5v-4.7c0-0.9-1.6-1.6-2.5-1.6c-0.9,0-2.5,0.7-2.5,1.6v7c0,4-3.2,7.1-7.3,7.1H46.4V68.7
			c0-2.2-0.9-4.2-2.6-5.6c-0.7-0.6-1.7-0.5-2.3,0.2c-0.6,0.7-1.4,1.7-0.7,2.3c0.9,0.8,0.6,2,0.6,3.2V86c0,2.3-1,4.2-3.3,4.2
			c-1.3,0-2.2-0.6-3-1.7c-0.2-0.3-0.3-0.5-0.6-0.6c-0.5-0.2-0.9-0.1-1.4,0.2c-0.7,0.5-0.8,1.5-0.3,2.3c1.4,1.9,3.7,3.1,6,3.1
			c4.1,0,7.5-3.3,7.5-7.4v-1.4h12.7c5.5,0,10.1-3.9,10.8-9.2c4.2-0.7,8.2-4.3,8.2-8.8C78.1,62.2,72.4,58.6,71.4,57.8L71.4,57.8z
			 M1.7,31.4l7.1,3.9c0.2,0.1,0.5,0.2,0.8,0.2c0.6,0,1.1-0.3,1.4-0.8c0.4-0.8,0.1-1.8-0.6-2.2l-7.1-3.9c-0.8-0.4-1.8-0.1-2.2,0.6
			C0.6,30,0.9,31,1.7,31.4L1.7,31.4z M15.5,25.6c0.3,0.4,0.8,0.6,1.2,0.6c0.4,0,0.7-0.1,1.1-0.4c0.7-0.6,0.8-1.6,0.2-2.3l-6.8-8
			c-0.6-0.7-1.6-0.8-2.3-0.2c-0.7,0.6-0.8,1.6-0.2,2.3L15.5,25.6z M25.5,18.3c0.3,0.6,0.9,1,1.5,1c0.2,0,0.4,0,0.6-0.1
			c0.8-0.3,1.2-1.3,0.9-2.1L23.8,5.7c-0.3-0.8-1.3-1.2-2.1-0.9c-0.8,0.3-1.2,1.3-0.9,2.1L25.5,18.3z M66.6,34.7
			c0.3,0.5,0.8,0.8,1.4,0.8c0.3,0,0.5-0.1,0.8-0.2l7.1-3.9c0.8-0.4,1.1-1.4,0.6-2.2c-0.4-0.8-1.4-1.1-2.2-0.6l-7.1,3.9
			C66.5,32.9,66.2,33.9,66.6,34.7L66.6,34.7z M60.9,26.2c0.5,0,0.9-0.2,1.2-0.6l6.8-8c0.6-0.7,0.5-1.7-0.2-2.3
			c-0.7-0.6-1.7-0.5-2.3,0.2l-6.8,8c-0.6,0.7-0.5,1.7,0.2,2.3C60.2,26,60.6,26.2,60.9,26.2L60.9,26.2z M50,19.2
			c0.2,0.1,0.4,0.1,0.6,0.1c0.6,0,1.2-0.4,1.5-1l4.7-11.4c0.3-0.8,0-1.8-0.9-2.1c-0.8-0.3-1.8,0-2.1,0.9l-4.7,11.4
			C48.8,17.9,49.2,18.8,50,19.2L50,19.2z M38.4,15.4V1.6c0-0.9,0.1-1.6,1-1.6s1,0.7,1,1.6v13.7c0,0.9-0.1,1.6-1,1.6
			S38.4,16.3,38.4,15.4L38.4,15.4z"/>
	</g>
</g>
</svg>
