<?xml version="1.0" encoding="utf-8"?>
<!-- Generator: Adobe Illustrator 20.1.0, SVG Export Plug-In . SVG Version: 6.00 Build 0)  -->
<svg version="1.1" xmlns="http://www.w3.org/2000/svg" xmlns:xlink="http://www.w3.org/1999/xlink" x="0px" y="0px"
	 viewBox="0 0 78.8 90.7" style="enable-background:new 0 0 78.8 90.7;" xml:space="preserve">
<style type="text/css">
	.st0{display:none;}
	.st1{fill:#FFFFFF;}
</style>
<g id="BG">
</g>
<g id="Layer_3" class="st0">
</g>
<g id="Navbar">
</g>
<g id="Solid_Layer">
</g>
<g id="Forms__x26__Text">
	<g>
		<path class="st1" d="M50.2,69.3c0.3,0.4,0.9,0.5,1.3,0.2c1.7-1.4,3.8-2.1,6-2.1c2.2,0,4.3,0.7,6,2.1c0.2,0.1,0.4,0.2,0.6,0.2
			c0.3,0,0.6-0.1,0.7-0.4c0.3-0.4,0.3-1-0.1-1.3c-0.7-0.6-1.5-1.1-2.3-1.4c0.4-0.5,0.6-1.2,0.4-1.8C61.8,62.6,59.6,61,57,61
			c-2.5,0-4.7,1.5-5.7,3.7c-0.3,0.8,0,1.7,0.7,2.1c-0.6,0.3-1.2,0.7-1.7,1.1C50,68.3,49.9,68.9,50.2,69.3 M17.9,64.8
			c0.4,3.9,11.4,2.3,14.2,2.3c2.2,0,3-2.2,2.2-4c-1.1-2.5-3.7-4.3-6.4-4.8c3.1-1.1,5.8-3.1,7.8-5.7c0.5-0.6,0.3-1.5-0.3-1.9
			c-0.6-0.5-1.5-0.3-1.9,0.3c-1.9,2.6-4.6,4.3-7.7,5.1c-3.1,0.8-6.3,0.5-9.2-0.8c-0.7-0.3-1.5,0-1.8,0.7c-0.3,0.7,0,1.5,0.7,1.8
			c2.1,1,4.3,1.5,6.6,1.5C19.7,60.4,17.7,62.3,17.9,64.8 M39.8,28.2c-2.3,0-4.3,1.9-4.3,4.3s1.9,4.3,4.3,4.3c2.3,0,4.3-1.9,4.3-4.3
			S42.2,28.2,39.8,28.2 M72,53.9v-4.4c0-3-4-5-11.5-6.3c-5.6-1-13.5-1.6-21.5-1.6c-8,0-15.1,0.6-20.6,1.6C13.8,44,8,45.6,8,49.5v4.9
			c-5,0.8-8,4.5-8,9c0,4.5,3.1,7.7,7.4,8.5c0.7,5.4,5.2,9,10.8,9h12.4c0.9,0,1.7-0.6,1.7-1.5l0,0c0-0.9-0.7-1.5-1.7-1.5H18.2
			c-4.1,0-8.1-2.4-8.1-6.5v-7.1c0-0.9-0.1-1.7-1-1.7c-0.9,0-1,0.7-1,1.7v4.8c-4-0.7-4.7-3-4.7-5.6c0-3.2,2.2-5.9,5.5-5.9
			c0.9,0,1.3-0.7,1.3-1.7v-6.4c0,0,0.6-1.7,8.2-3.1c5.3-1,12.7-1.5,20.5-1.5c7.7,0,15,0.6,20.4,1.5c7.6,1.4,7.9,3.1,7.9,3.1v6.4
			c0,0.9,1,1.7,1.9,1.7c3.2,0,6.6,2.6,6.6,5.9c0,2.7-1.5,4.9-3.5,5.6v-4.8c0-0.9-1.6-1.7-2.5-1.7c-0.9,0-2.5,0.7-2.5,1.7v7.1
			c0,4.1-3.1,6.5-7.3,6.5H48V65.5c0-2.2-1.6-4.3-3.3-5.7c-0.7-0.6-2-0.5-2.6,0.2c-0.6,0.7-0.9,1.7-0.2,2.3c0.9,0.8,1.1,2,1.1,3.2
			v17.6c0,2.4-1.7,4.3-4,4.3c-1.4,0-2.5-0.7-3.3-1.8c-0.2-0.3-0.4-0.5-0.8-0.6c-0.5-0.2-1-0.1-1.5,0.2c-0.7,0.5-0.9,1.6-0.4,2.3
			c1.4,2,4.3,3.1,6.8,3.1c4.2,0,8.2-3.4,8.2-7.6v-2.2h11.7c5.6,0,10.3-3.6,11-9c4.3-0.7,8-4.2,8-8.8c0-4.5-4.6-8.4-7-9.2 M30.6,8.7
			c1-4,3.7-7.5,7.9-8.4c4.4-1,8.4,0.9,10.7,4.8c4.3,7.3-3.5,12.5-6.3,18.4c-1.6,3.3-6.5,0.4-4.9-2.9c1.1-2.2,2.7-4.1,4.2-6.1
			c1.1-1.4,2.6-3.2,2.6-5.1c-0.1-2.2-2.3-4-4.5-3.7C37.8,6,36.6,8,36.1,10.2C35.2,13.8,29.7,12.2,30.6,8.7"/>
	</g>
</g>
</svg>
