<?xml version="1.0" encoding="utf-8"?>
<!-- Generator: Adobe Illustrator 20.1.0, SVG Export Plug-In . SVG Version: 6.00 Build 0)  -->
<svg version="1.1" xmlns="http://www.w3.org/2000/svg" xmlns:xlink="http://www.w3.org/1999/xlink" x="0px" y="0px"
	 viewBox="0 0 78.1 86.7" style="enable-background:new 0 0 78.1 86.7;" xml:space="preserve">
<style type="text/css">
	.st0{display:none;}
	.st1{fill:#FFFFFF;}
</style>
<g id="BG">
</g>
<g id="Layer_3" class="st0">
</g>
<g id="Navbar">
</g>
<g id="Solid_Layer">
</g>
<g id="Forms__x26__Text">
	<g>
		<path class="st1" d="M40.3,7.9l0.3,4c0,0.4,0.3,0.7,0.7,0.7c0.4,0,0.8-0.3,0.8-0.7l0.3-4c0,0,0-0.1,0-0.1c0-0.6-0.5-1-1.1-0.9
			C40.7,6.8,40.3,7.3,40.3,7.9L40.3,7.9z M60.3,20.7l2.3-1.3c0.1-0.1,0.2-0.2,0.3-0.3c0.3-0.5,0.2-1.1-0.3-1.4
			c-0.5-0.3-1.1-0.2-1.4,0.3l-1.5,2.2c-0.1,0.1-0.1,0.3,0,0.5C59.8,20.7,60.1,20.8,60.3,20.7L60.3,20.7z M15.7,18.7
			c0.2,0.1,0.5,0.1,0.6,0c0.2-0.2,0.2-0.5,0-0.7c0,0-4.3-4.6-4.4-4.6c-0.4-0.3-1.1-0.3-1.4,0.2c-0.3,0.4-0.3,1.1,0.2,1.4L15.7,18.7z
			 M13,32.1c-0.1,0.1-0.2,0.3-0.2,0.5c-0.1,0.5,0.3,1,0.8,1.1l5.2,1.2c0.2,0.1,0.5-0.1,0.6-0.3c0.1-0.3,0-0.6-0.3-0.7l-2.7-1.2
			c-0.4-0.2-0.5-0.7-0.2-1c0.9-1,2.5-2.7,2.5-2.7c0.2-0.5,0-1.1-0.5-1.3c0,0-7-3.4-7.1-3.5c-0.9-0.3-1.8,0.3-2,1.2
			c-0.2,0.9,0.4,1.7,1.2,2l4.7,1.4c0.5,0.1,0.6,0.7,0.3,1.1L13,32.1z M32.7,24.8C32.7,24.8,32.7,24.8,32.7,24.8
			c0.2,0.1,0.4,0.1,0.7,0.1c0.8,0,1.4-0.7,1.4-1.5l0-0.1c0,0-1.1-21.2-1.1-21.3c-0.2-1.5-1.8-2.5-3.3-2c-1.1,0.4-1.7,1.6-1.6,2.8
			l2.4,16.4c0.1,0.7-0.6,1.3-1.3,1l-5.3-2.5c-0.5-0.2-1.1-0.2-1.5,0.2c-0.6,0.5-0.6,1.4-0.2,2l9.9,14.5c0.2,0.3,0.6,0.4,0.9,0.2
			c0.3-0.2,0.4-0.6,0.3-0.9l-5.7-10.1c-0.2-0.4,0.2-0.9,0.6-0.7L32.7,24.8z M54.9,13.5c0.7-1.1,0.4-2.7-0.8-3.4
			C53,9.5,51.5,9.9,50.8,11l-7.8,11.9c-0.1,0.2-0.2,0.4-0.2,0.6c-0.1,0.8,0.5,1.6,1.3,1.7l1.8,0.4c0.6,0.1,0.9,0.9,0.5,1.4L41.6,33
			c-0.3,0.4-0.3,0.9,0.1,1.2c0.4,0.4,0.9,0.4,1.3,0l8.3-8.3c0.3-0.3,0.4-0.6,0.4-1.1c0-0.7-0.5-1.3-1.3-1.5l-2-0.4
			c-0.6-0.1-0.8-0.8-0.5-1.3C50,19.3,54.9,13.5,54.9,13.5L54.9,13.5z M54.7,34.7l2.9-3.6c0.4-0.5,1-0.5,1.4-0.1
			c1.1,1.2,3,3.2,3.1,3.3c0.6,0.4,1.3,0.2,1.6-0.3c0,0,3.9-6,3.9-6.1c0.4-0.9,0-2-1-2.3c-0.8-0.2-1.5,0.2-1.9,0.9l-1.8,3.7
			c-0.2,0.5-0.9,0.6-1.3,0.2c-1.1-1.1-2.8-3-2.9-3.1c-0.5-0.3-1.2-0.1-1.5,0.4l-3.6,6.1c-0.2,0.3-0.1,0.7,0.2,0.9
			C54,35,54.4,35,54.7,34.7z M62.2,50.6c0.2-0.5,0.1-1-0.4-1.2c-0.5-0.2-1-0.1-1.2,0.4c-1,1.9-2.5,3.4-4.5,4.3
			c-2,0.9-4.1,1.1-6.2,0.5c-0.5-0.1-1,0.2-1.1,0.7c-0.1,0.5,0.2,1,0.7,1.1c0.9,0.2,1.9,0.4,2.8,0.4c0.5,0,1,0,1.5-0.1
			c-1.1,0.7-2,1.4-2.5,2.6c-0.5,1.1,0.4,2.1,1.6,2.1h7.9c1.2,0,2.1-1,1.6-2.1c-0.9-2.2-3-3.5-5.5-3.5c0,0-0.1,0.1-0.1,0.1
			c0.1,0,0.1,0,0.2-0.1C59.1,54.6,61.1,52.8,62.2,50.6z M78.1,60c0,4.4-3.4,8.1-7.7,8.9c-0.7,5.3-5.5,9.4-11,9.4H47.1v1
			c0,4.1-3.6,7.4-7.6,7.4c-2.4,0-4.7-1.1-6.1-3.1c-0.5-0.7-0.4-1.7,0.3-2.3c0.4-0.3,1-0.4,1.4-0.2c0.3,0.1,0.6,0.3,0.8,0.6
			c0.8,1.1,1.4,1.7,2.7,1.7c2.3,0,3.5-1.9,3.5-4.2V62.1c0-1.2,0.1-2.4-0.8-3.2c-0.7-0.6-0.4-1.6,0.2-2.3c0.6-0.7,2-0.8,2.7-0.2
			c1.6,1.4,3,3.5,3,5.6v13.2h12.3c4.1,0,6.7-3.4,6.7-7.4v-7c0-0.9,1.6-1.6,2.5-1.6c0.9,0,2.5,0.7,2.5,1.6v4.7c2-0.7,3.7-2.9,3.7-5.5
			c0-3.2-3.3-5.8-6.4-5.8c-0.9,0-2.3-0.7-2.3-1.6v-6.2c0,0-0.1-1.7-7.5-3c-5.3-1-12.4-1.5-20-1.5c-7.3,0-13.9,0.5-19.1,1.4
			c1.3,2.6,3.4,4.7,6,6.1c2.9,1.5,6.1,2,9.3,1.4c0.8-0.1,1.5,0.4,1.7,1.1c0.1,0.8-0.3,1.5-1.1,1.6c-1,0.2-2.1,0.3-3.2,0.3
			c-0.6,0-1.2,0-1.8-0.1c1.7,0.9,3.1,2.3,3.9,4c0.8,1.8,0,4-2.2,4c-2.9,0-14,1.6-14.4-2.3c-0.4-3.9,5-6.7,8.3-6.8
			c-0.6-0.2-1.2-0.5-1.8-0.8c-3.3-1.8-5.4-4.6-6.9-8c-5.5,1.3-5.3,2.6-5.3,2.6v6.2c0,0.9-1.3,1.6-2.2,1.6c-3.2,0-6.4,2.6-6.4,5.8
			c0,2.6,0.6,4.8,3.6,5.5v-4.7c0-0.9,1.6-1.6,2.5-1.6c0.9,0,2.5,0.7,2.5,1.6v7c0,4,2.4,7.4,6.5,7.4h12.1c0.9,0,1.6,0.6,1.6,1.5
			c0,0.9-0.7,1.5-1.6,1.5H18.6c-5.5,0-10.1-4.1-10.8-9.4C3.5,68.2,0,64.5,0,60c0-4.4,4.1-8.1,7.1-8.8v-4.8c0-3.8,6.3-5.4,10.8-6.2
			c5.4-1,12.9-1.6,20.7-1.6c7.9,0,15.8,0.6,21.3,1.6c7.3,1.3,11.2,3.3,11.2,6.2v4.8C73.1,51.9,78.1,55.6,78.1,60z"/>
	</g>
</g>
</svg>
