<?xml version="1.0" encoding="utf-8"?>
<!-- Generator: Adobe Illustrator 20.1.0, SVG Export Plug-In . SVG Version: 6.00 Build 0)  -->
<svg version="1.1" xmlns="http://www.w3.org/2000/svg" xmlns:xlink="http://www.w3.org/1999/xlink" x="0px" y="0px"
	 viewBox="0 0 109.6 65.1" style="enable-background:new 0 0 109.6 65.1;" xml:space="preserve">
<style type="text/css">
	.st0{display:none;}
	.st1{fill:#258AD6;}
</style>
<g id="BG">
</g>
<g id="Layer_3" class="st0">
</g>
<g id="Navbar">
</g>
<g id="Solid_Layer">
</g>
<g id="Forms__x26__Text">
	<g>
		<path class="st1" d="M58.4,14.7l0.5,7.4c0,0.7,0.6,1.2,1.3,1.3c0.7,0.1,1.4-0.5,1.5-1.3l0.5-7.4c0-0.1,0-0.2,0-0.3
			c-0.1-1-1-1.8-2-1.8C59.1,12.7,58.3,13.6,58.4,14.7L58.4,14.7z M95.5,38.6l4.3-2.5c0.2-0.1,0.5-0.3,0.6-0.6
			c0.6-0.9,0.4-2.1-0.5-2.7c-0.9-0.6-2.1-0.4-2.7,0.5l-2.9,4.1c-0.2,0.2-0.2,0.6,0,0.9C94.6,38.6,95.1,38.8,95.5,38.6L95.5,38.6z
			 M12.5,34.8c0.3,0.3,0.8,0.2,1.2-0.1c0.4-0.3,0.4-0.9,0-1.3c0,0-8-8.6-8.1-8.6c-0.8-0.6-2-0.5-2.6,0.4c-0.6,0.8-0.5,2,0.4,2.6
			L12.5,34.8z M7.5,59.8c-0.2,0.2-0.4,0.6-0.5,0.9c-0.2,0.9,0.5,1.8,1.5,2l9.6,2.2c0.5,0.1,0.9-0.1,1.1-0.6c0.2-0.5,0-1.1-0.5-1.3
			l-5-2.2c-0.8-0.3-1-1.3-0.4-1.9c1.7-1.8,4.6-5,4.7-5.1c0.5-0.9,0.1-2.1-0.9-2.5c0,0-13.1-6.4-13.3-6.4c-1.6-0.5-3.4,0.5-3.8,2.2
			c-0.4,1.6,0.7,3.2,2.2,3.7l8.7,2.7c0.9,0.3,1.1,1.3,0.5,2L7.5,59.8z M44.1,46.3C44.1,46.3,44.1,46.3,44.1,46.3
			c0.4,0.2,0.8,0.3,1.3,0.3c1.5-0.1,2.6-1.3,2.6-2.8l0-0.1c0,0-2-39.5-2-39.6c-0.4-2.8-3.3-4.7-6.2-3.7c-2.1,0.8-3.3,3-2.9,5.1
			L41.4,36c0.2,1.4-1.2,2.4-2.5,1.8L29,33.2c-0.9-0.4-2-0.3-2.8,0.4c-1.1,0.9-1.2,2.5-0.4,3.7l18.4,27c0.4,0.5,1.1,0.7,1.7,0.4
			c0.6-0.3,0.8-1.1,0.5-1.7L35.8,44.1c-0.4-0.7,0.4-1.6,1.1-1.2L44.1,46.3z M85.5,25.1c1.4-2.1,0.7-5-1.5-6.3
			c-2.1-1.2-4.7-0.4-6.1,1.6L63.5,42.6c-0.2,0.4-0.4,0.8-0.4,1.2c-0.2,1.5,0.9,2.9,2.4,3.2l3.3,0.7c1.2,0.3,1.7,1.7,0.9,2.7l-9,11.1
			c-0.5,0.7-0.5,1.7,0.1,2.3c0.7,0.7,1.8,0.7,2.4,0l15.5-15.4c0.5-0.5,0.8-1.2,0.8-2c0-1.4-1-2.5-2.3-2.8l-3.7-0.8
			c-1.1-0.2-1.6-1.5-0.8-2.4C76.5,36,85.4,25.2,85.5,25.1L85.5,25.1z M85.1,64.6l5.3-6.6c0.7-0.8,1.9-0.9,2.7-0.1
			c2,2.2,5.6,6,5.7,6.1c1,0.7,2.4,0.4,3.1-0.6c0,0,7.3-11.2,7.3-11.3c0.8-1.7,0-3.7-1.9-4.2c-1.4-0.4-2.9,0.4-3.5,1.7l-3.4,6.9
			c-0.4,0.9-1.7,1.1-2.4,0.3c-2-2.1-5.3-5.6-5.4-5.7c-1-0.6-2.3-0.3-2.9,0.7L83,63.2c-0.3,0.5-0.2,1.2,0.3,1.7
			C83.8,65.3,84.6,65.2,85.1,64.6z"/>
	</g>
</g>
</svg>
