<?xml version="1.0" encoding="utf-8"?>
<!-- Generator: Adobe Illustrator 20.1.0, SVG Export Plug-In . SVG Version: 6.00 Build 0)  -->
<svg version="1.1" xmlns="http://www.w3.org/2000/svg" xmlns:xlink="http://www.w3.org/1999/xlink" x="0px" y="0px"
	 viewBox="0 0 76.9 74.1" style="enable-background:new 0 0 76.9 74.1;" xml:space="preserve">
<style type="text/css">
	.st0{display:none;}
	.st1{fill:#258AD6;}
</style>
<g id="BG">
</g>
<g id="Layer_3" class="st0">
</g>
<g id="Navbar">
</g>
<g id="Solid_Layer">
</g>
<g id="Forms__x26__Text">
	<g>
		<path class="st1" d="M26.5,47.4c0,2.4-2,4.4-4.4,4.4c-2.4,0-4.4-2-4.4-4.4c0-0.9-0.7-1.6-1.6-1.6c-0.9,0-1.6,0.7-1.6,1.6
			c0,4.2,3.4,7.6,7.6,7.6c4.2,0,7.6-3.4,7.6-7.6c0-0.9-0.7-1.6-1.6-1.6C27.2,45.8,26.5,46.6,26.5,47.4L26.5,47.4z M60,47.4
			c0,2.4-2,4.4-4.4,4.4c-2.4,0-4.4-2-4.4-4.4c0-0.9-0.7-1.6-1.6-1.6c-0.9,0-1.6,0.7-1.6,1.6c0,4.2,3.4,7.6,7.6,7.6
			c4.2,0,7.6-3.4,7.6-7.6c0-0.9-0.7-1.6-1.6-1.6C60.8,45.8,60,46.6,60,47.4L60,47.4z M57.2,30.8c1.5,1.6,1.8-2.1,1.4-3
			c-0.3-0.7-1.2-2.1-2-2.1c-0.1,0-0.2,0-0.3,0.1c-0.7,0.4-1.3,1-2.2,1.1c-1.4,0.2-2.2-1.3-1.5-2.5c0.1-0.1,0.2-0.3,0.1-0.5
			c-0.1-0.1-0.2-0.1-0.3-0.1c-0.6,0-1.2,0.1-1.7-0.2c-2.2-0.9-0.2-2.8,0.5-3.8c0-0.1,0.1-0.1,0.1-0.2c0-0.1-0.2-0.2-0.3-0.3
			c-0.6-0.2-1.3-0.1-1.9-0.4c-0.8-0.4-1-1.5-0.5-2.3l0.9-1.1c0.3-0.4,0.2-1.1-0.3-1.3c-0.5-0.3-1.3-0.5-1.9-0.7
			c-0.5-0.1-0.9,0.3-0.8,0.7l0,0c0.2,1-0.5,1.8-1.3,2.4c-0.2,0.1-0.5,0.3-0.7,0.5c-0.2,0.2-0.3,0.5-0.2,0.8c0.1,0.2,0.3,0.3,0.4,0.5
			c0.5,0.4,1.1,0.6,1.6,1.1c1,1.2-0.5,2.3-1.4,2.9c-0.3,0.2-0.7,0.5-0.6,0.9c0,0.4,0.5,0.7,0.8,0.9c0.9,0.8,0.8,2.2-0.1,3
			c-0.3,0.3-0.8,0.5-0.8,0.9c-0.1,0.4,0.3,0.7,0.5,0.9c0.6,0.5,0.8,1.3,0.5,2l0,0c-0.3,0.9,0.5,1.5,1.4,1.3c0.5-0.1,0.8-0.5,1-0.9
			l1.1-2.9c0.2-0.6,0.8-1.1,1.5-1.2c0.6-0.1,1.3,0.2,1.7,0.8l1,1.3c0.1,0.2,0.4,0.2,0.6,0.2l0.9-0.3c0.7-0.2,1.4-0.1,1.9,0.5
			L57.2,30.8z M55.9,31.4c-0.1-0.3-0.3-0.4-0.5-0.6c-0.1-0.1-0.3-0.2-0.4-0.3c-0.6-0.2-1.2,0.4-1.8,0.4c-1.2,0-1.7-1-2.4-1.9
			c-0.1-0.1-0.2-0.3-0.4-0.4c-0.1-0.1-0.3-0.1-0.5,0c-0.1,0.1-0.2,0.2-0.2,0.3c0,0,0,0,0,0c-0.3,0.7-0.5,1.4-0.8,2.1
			c-0.2,0.7,0.2,1.4,0.9,1.4c0,0,3.6,0,5.6,0C55.9,32.3,56.1,31.8,55.9,31.4L55.9,31.4z M43.7,29.9c-0.4-0.7-1.1-0.9-1.1-1.8
			c0-0.7,0.3-1.4,0.9-1.8c0.2-0.1,0.3-0.2,0.5-0.4c0.6-0.7-0.6-1.3-0.9-1.8c-0.4-0.7-0.4-1.6,0.1-2.3c0.3-0.3,0.6-0.6,1-0.8
			c0.2-0.1,0.4-0.2,0.6-0.4c0.6-0.8-1.3-1.5-1.6-2.1c-0.3-0.5-0.4-1.2-0.2-1.7c0.2-0.6,0.7-1,1.2-1.3c0.4-0.2,0.8-0.5,0.8-1
			c0-0.2-0.1-0.4-0.2-0.6c-0.7-1-2.5-2.3-3.8-1.5c-1.9,1.2-2.2,12.7-0.5,17.5c0.4,1,1.7,1.5,2.7,1C43.6,30.8,43.9,30.3,43.7,29.9
			L43.7,29.9z M49.6,17.4c0,0.1-0.1,0.2,0,0.2c0,0.1,0.1,0.2,0.2,0.2c0.6,0.2,1.3,0.1,1.9,0.5c0.8,0.5,1,1.6,0.5,2.3
			c-0.4,0.5-0.8,1-1.2,1.4c0,0.1-0.1,0.1-0.1,0.2c0,0.2,0.2,0.3,0.4,0.3c0.4,0,0.7,0,1.1,0c1.1,0.1,2,1.3,1.3,2.4
			c-0.1,0.2-0.3,0.5-0.1,0.7c0.2,0.2,0.5,0.1,0.7,0c0.4-0.2,0.9-0.7,1.4-0.9c0.1,0,0.1-0.1,0.2-0.1c0.6-0.1,1,0.2,1.5,0.5
			c0.4,0.2,0.9-0.2,0.8-0.7c-0.7-2.1-1.8-4-3.2-5.7c-0.6-0.6-3.3-4-4.3-2.7C50.3,16.4,49.8,16.8,49.6,17.4L49.6,17.4z M35.6,12.5
			c-1.5-0.9-3.1,0.5-3.8,1.5c-0.1,0.2-0.2,0.4-0.2,0.6c0,0.5,0.5,0.7,0.8,1c0.5,0.3,1,0.7,1.2,1.3c0.2,0.5,0.1,1.2-0.2,1.7
			c-0.3,0.6-2.2,1.2-1.6,2.1c0.1,0.2,0.3,0.3,0.6,0.4c0.4,0.2,0.7,0.5,1,0.8c0.5,0.6,0.5,1.6,0.1,2.3c-0.3,0.5-1.5,1-0.9,1.8
			c0.1,0.1,0.3,0.2,0.5,0.4c0.6,0.4,0.9,1.1,0.9,1.8c0,1-0.7,1.1-1.1,1.8c-0.2,0.4,0.1,0.9,0.5,1.1c1,0.5,2.3,0,2.7-1
			C37.8,25.2,37.1,13.4,35.6,12.5L35.6,12.5z M32.8,27.9c-0.1-0.4-0.5-0.6-0.8-0.9c-0.9-0.7-1-2.2-0.1-3c0.3-0.3,0.8-0.5,0.8-0.9
			c0-0.4-0.3-0.6-0.6-0.9c-1-0.6-2.4-1.6-1.4-2.9c0.4-0.5,1-0.8,1.5-1.1c0.2-0.1,0.4-0.3,0.4-0.5c0.1-0.3,0-0.6-0.2-0.8
			c-0.2-0.2-0.4-0.3-0.7-0.5c-0.8-0.5-1.5-1.3-1.3-2.4l0,0c0.1-0.5-0.4-0.9-0.8-0.7c-0.6,0.2-1.4,0.4-1.9,0.7
			c-0.5,0.3-0.6,0.9-0.3,1.3l0.9,1.1c0.5,0.7,0.3,1.8-0.5,2.3c-0.6,0.3-1.3,0.3-1.9,0.4c-0.1,0-0.3,0.1-0.3,0.3c0,0.1,0,0.1,0.1,0.2
			c0.7,1,2.7,3,0.5,3.8c-0.5,0.2-1.2,0.1-1.7,0.2c-0.1,0-0.3,0-0.3,0.1c-0.1,0.1,0,0.3,0.1,0.5c0.7,1.2-0.1,2.7-1.5,2.5
			c-0.8-0.1-1.4-0.8-2.2-1.1c-0.1,0-0.2-0.1-0.3-0.1c-0.8,0-1.7,1.4-2,2.1c-0.4,0.9-0.2,4.6,1.4,3l1.1-1.1c0.5-0.5,1.2-0.7,1.9-0.5
			l0.9,0.3c0.2,0.1,0.4,0,0.6-0.2l1-1.3c0.4-0.5,1-0.8,1.7-0.8c0.7,0.1,1.3,0.5,1.5,1.2l1.1,2.9c0.2,0.5,0.5,0.8,1,0.9
			c0.9,0.2,1.7-0.5,1.4-1.3l0,0c-0.2-0.8-0.1-1.5,0.5-2C32.5,28.6,32.8,28.3,32.8,27.9L32.8,27.9z M27.8,30.9
			c-0.3-0.7-0.5-1.4-0.8-2.1c0,0,0,0,0,0c-0.1-0.1-0.1-0.2-0.2-0.3c-0.1-0.1-0.3-0.1-0.5,0c-0.1,0.1-0.3,0.2-0.4,0.4
			c-0.7,0.8-1.2,1.9-2.4,1.9c-0.6,0-1.2-0.6-1.8-0.4c-0.2,0.1-0.3,0.2-0.4,0.3c-0.2,0.2-0.4,0.4-0.5,0.6c-0.2,0.4,0,0.9,0.5,0.9
			c2,0,5.6,0,5.6,0C27.5,32.3,28,31.6,27.8,30.9L27.8,30.9z M19.3,25c0.5-0.3,1-0.6,1.5-0.5c0.1,0,0.1,0,0.2,0.1
			c0.5,0.2,1,0.6,1.4,0.9c0.2,0.1,0.5,0.2,0.7,0c0.1-0.2,0-0.5-0.1-0.7c-0.6-1.1,0.2-2.3,1.3-2.4c0.4,0,0.7,0,1.1,0
			c0.2,0,0.5-0.1,0.4-0.3c0-0.1-0.1-0.1-0.1-0.2c-0.4-0.5-0.8-1-1.2-1.4c-0.6-0.7-0.4-1.8,0.5-2.3c0.6-0.3,1.3-0.2,1.9-0.5
			c0.1,0,0.2-0.1,0.2-0.2c0-0.1,0-0.2,0-0.2c-0.2-0.6-0.7-0.9-1.1-1.4c-1-1.3-3.7,2.1-4.3,2.7c-1.4,1.7-2.6,3.6-3.2,5.7
			C18.4,24.8,18.9,25.2,19.3,25L19.3,25z M57.8,35.2H18.2c-2.5,0-3.3-1.3-3.3-3.7v-2.1c0-6.4,2-12.2,6.6-16.3
			c4.5-4,10.3-6.1,16.8-6.1S51.1,9.1,55.5,13c4.6,4.1,7.3,9.9,7.3,16.3v2.1c0,2.5-2.3,3.7-4.7,3.7H57.8z M76.9,47.5
			c0,4.4-3.4,8.3-7.6,9.1c-0.7,5.3-5.4,9.6-10.9,9.6H45.8v0.6c0,4.1-3.4,7.4-7.5,7.4c-2.4,0-4.7-1.1-6-3.1c-0.5-0.7-0.4-1.7,0.3-2.3
			c0.4-0.3,1-0.4,1.4-0.2c0.3,0.1,0.6,0.3,0.8,0.6c0.8,1.1,2.7,1.7,4.1,1.7c2.3,0,4.9-1.9,4.9-4.2V49.5c0-1.2-1.2-2.4-2.2-3.2
			c-0.7-0.6-1.1-1.6-0.5-2.3c0.6-0.7,1.5-0.8,2.2-0.2c1.6,1.4,2.5,3.4,2.5,5.6v11.6h12.5c4,0,8.5-1.8,8.5-5.8v-7.9
			c0-0.9,0.6-1.6,1.5-1.6c0.9,0,1.5,0.7,1.5,1.6V53c2-0.7,3.8-2.9,3.8-5.5c0-3.2-2.3-5.7-5.5-5.7c-0.9,0-1.3-0.7-1.3-1.6V29.3
			c0-14.9-12.6-26.1-28.5-26.1C22.4,3.2,9.8,14.4,9.8,29.3v10.8c0,0.9-0.6,1.6-1.5,1.6c-3.2,0-5.2,2.6-5.2,5.7
			c0,2.6,2.7,4.8,4.7,5.5v-5.6c0-0.9,0.1-1.6,1-1.6c0.9,0,1,0.7,1,1.6v7.9c0,4,3.8,5.8,7.9,5.8h12.1c0.9,0,1.6,1.6,1.6,2.5l0,0
			c0,0.9-0.7,2.5-1.6,2.5H17.7c-5.5,0-10-4.3-10.8-9.6c-4.2-0.7-7-4.5-7-8.9c0-4.4,2.8-8.2,7.8-8.9v-9.4C7.8,12.6,21.1,0,38.8,0
			s31,12.6,31,29.3v9.4C74.8,39.4,76.9,43.1,76.9,47.5L76.9,47.5z"/>
	</g>
</g>
</svg>
