<?xml version="1.0" encoding="utf-8"?>
<!-- Generator: Adobe Illustrator 20.1.0, SVG Export Plug-In . SVG Version: 6.00 Build 0)  -->
<svg version="1.1" xmlns="http://www.w3.org/2000/svg" xmlns:xlink="http://www.w3.org/1999/xlink" x="0px" y="0px"
	 viewBox="0 0 75.3 88.8" style="enable-background:new 0 0 75.3 88.8;" xml:space="preserve">
<style type="text/css">
	.st0{display:none;}
	.st1{fill:#258AD6;}
</style>
<g id="BG">
</g>
<g id="Layer_3" class="st0">
</g>
<g id="Navbar">
</g>
<g id="Solid_Layer">
</g>
<g id="Forms__x26__Text">
	<g>
		<path class="st1" d="M28.5,67.3c-0.5-0.4-1.1-0.8-1.7-1.1c0.7-0.5,0.9-1.5,0.5-2.3c-0.9-2-3.1-3.2-5.2-3.2c-2.1,0-5.7,1.8-5.4,4.4
			c0,0.4,0.2,0.7,0.6,0.9c-0.8,0.4-1.6,0.8-2.3,1.4c-0.4,0.3-0.4,0.9-0.1,1.3c0.2,0.2,0.4,0.3,0.7,0.3c0.2,0,0.4-0.1,0.6-0.2
			c1.6-1.3,3.6-2,5.7-2c2.1,0,4.1,0.7,5.7,2c0.4,0.3,1,0.2,1.3-0.1C28.9,68.2,28.8,67.6,28.5,67.3L28.5,67.3z M50.1,66.2
			c-0.6,0.3-1.1,0.7-1.6,1.1c-0.4,0.3-0.5,0.9-0.1,1.3c0.3,0.4,0.9,0.5,1.3,0.1c1.6-1.3,3.6-2,5.7-2c2.1,0,4.1,0.7,5.7,2
			c0.2,0.1,0.4,0.2,0.6,0.2c0.3,0,0.5-0.1,0.7-0.3c0.3-0.4,0.2-1-0.1-1.3c-0.7-0.6-1.4-1-2.2-1.4c0.4-0.4,0.6-1.1,0.3-1.7
			c-0.9-2.1-3-3.6-5.4-3.6c-2.4,0-4.5,1.5-5.4,3.6C49.1,64.9,49.4,65.8,50.1,66.2L50.1,66.2z M75.3,62.9c0,4.3-3.2,7.5-7.3,8.2
			c-0.7,5.2-5.2,8.8-10.6,8.8H45.2v1.7c0,4-3.3,7.2-7.3,7.2c-2.3,0-4.5-1.1-5.8-2.9c-0.5-0.7-0.5-1.7,0.1-2.2c0.4-0.4,1-0.5,1.5-0.3
			c0.3,0.1,0.6,0.3,0.8,0.6c1,1.4,2.1,2.1,3.9,1.4c1.6-0.6,1.8-2.2,1.8-3.9V64.8c0-1.2,0.2-2.2-0.6-3c-0.6-0.6-0.3-1.5,0.2-2.1
			c0.6-0.7,2-0.7,2.7-0.1c1.5,1.4,2.7,3.3,2.7,5.4v12h12.1c3.9,0,7.9-2.5,7.9-6.3v-6.8c0-1,0.8-1.7,1.8-1.5c0.7,0.1,1.2,0.8,1.2,1.6
			v4.5c2-0.7,3.9-2.8,3.9-5.4c0-3.1-2.4-5.6-5.5-5.6c-0.9,0-1.4-0.7-1.4-1.5v-6.1c0,0-0.8-1.6-8-2.9c-5.1-0.9-12.4-1.5-19.8-1.5
			c-7.4,0-13.9,0.5-19,1.5c-7.2,1.3-7.2,2.9-7.2,2.9v6.1c0,0.9-1.2,1.5-2.1,1.5c-3.1,0-5.8,2.5-5.8,5.6c0,2.5,2.8,4.7,3.8,5.4v-4.5
			c0-1,1.3-1.7,2.3-1.5c0.7,0.1,1.7,0.8,1.7,1.6v6.8c0,3.9,2.6,6.3,6.5,6.3h11.8c0.9,0,1.6,0.6,1.6,1.5c0,0.9-0.7,1.5-1.6,1.5H17.7
			c-5.4,0-9.8-3.6-10.5-8.8C3.1,70.4,0,67,0,62.7c0-4.3,4.2-7.7,7.2-8.4v-4.6c0-3.2,4.3-4.8,8.3-5.7c0-0.4,1.5-3.3,2.4-3.3
			c0.1,0,0.2,0,0.3,0.1c0.9,0.4,1.6,1.2,2.5,1.4c1.6,0.2,2.5-1.6,1.7-3c-0.1-0.2-0.2-0.4-0.1-0.6c0.1-0.1,0.2-0.2,0.4-0.2
			c0.7,0,1.4,0.1,2-0.2c2.4-1,0.2-3.3-0.6-4.6c0-0.1-0.1-0.1-0.1-0.2c0-0.2,0.2-0.3,0.3-0.3c0.7-0.2,1.5-0.2,2.1-0.5
			c0.9-0.5,1.2-1.8,0.5-2.7l-1-1.3c-0.4-0.5-0.2-1.3,0.3-1.6c0.6-0.3,1.4-0.6,2.2-0.8c0.5-0.2,1,0.3,0.9,0.9l0,0.1
			c-0.2,1.2,0.5,2.2,1.4,2.8c0.3,0.2,0.5,0.3,0.7,0.6c0.2,0.2,0.3,0.6,0.2,0.9c-0.1,0.2-0.3,0.4-0.5,0.5c-0.6,0.4-1.3,0.7-1.7,1.3
			c-1.1,1.5,0.5,2.7,1.6,3.4c0.4,0.2,0.7,0.6,0.7,1c0,0.5-0.5,0.8-0.9,1.1c-0.5,0.5-0.7,1.1-0.7,1.8c0,0.5,0.2,1.3,0.7,1.5
			c0.4,0.2,1.1,0.1,1.3-0.3c0.2-0.4-0.3-0.5-0.4-0.7c-0.7-0.9,0.7-1.5,1-2.1c0.5-0.8,0.4-1.9-0.1-2.7c-0.3-0.4-0.7-0.7-1.1-1
			c-0.2-0.1-0.5-0.3-0.6-0.5c-0.6-1,1.5-1.8,1.9-2.5c0.3-0.6,0.4-1.4,0.2-2c-0.3-0.7-0.8-1.2-1.4-1.5c-0.4-0.3-0.9-0.6-0.9-1.2
			c0-0.2,0.1-0.5,0.2-0.7c0.8-1.2,2.6-2.9,4.3-1.8c1.3,0.9,2.2,10.5,1.3,17c0.2,0,0.5,0,0.7,0c0.9,0,1.8,0,2.8,0
			c-0.9-6.4-0.4-15.8,1.4-17c1.4-0.9,3.5,0.6,4.3,1.8c0.1,0.2,0.2,0.4,0.2,0.7c0,0.5-0.5,0.9-0.9,1.2c-0.6,0.4-1.1,0.9-1.4,1.5
			c-0.2,0.6-0.2,1.4,0.2,2c0.4,0.7,2.5,1.5,1.9,2.5c-0.1,0.2-0.4,0.4-0.6,0.5c-0.4,0.3-0.8,0.6-1.1,1c-0.6,0.8-0.6,1.9-0.1,2.7
			c0.3,0.5,1.2,0.9,1.2,1.6c0,0.4-0.6,0.6-0.7,1c-0.2,0.8,1,0.9,1.4,0.7c1.1-0.6,0.7-2.7,0-3.4c-0.4-0.3-0.9-0.6-0.9-1.1
			c0-0.4,0.4-0.8,0.7-1c1.1-0.7,2.7-1.9,1.6-3.4c-0.5-0.6-1.1-0.9-1.7-1.3c-0.2-0.1-0.4-0.3-0.5-0.5c-0.1-0.3,0-0.7,0.2-0.9
			c0.2-0.2,0.5-0.4,0.7-0.6c0.9-0.6,1.6-1.6,1.4-2.8l0-0.1c-0.1-0.6,0.4-1,0.9-0.9c0.7,0.2,1.6,0.5,2.2,0.8c0.6,0.3,0.7,1.1,0.3,1.6
			l-1,1.3c-0.6,0.8-0.3,2.1,0.5,2.7c0.6,0.4,1.4,0.3,2.1,0.5c0.2,0,0.3,0.2,0.3,0.3c0,0.1,0,0.1-0.1,0.2c-0.8,1.2-3,3.5-0.6,4.6
			c0.6,0.3,1.3,0.1,2,0.2c0.1,0,0.3,0,0.4,0.2c0.1,0.2,0,0.4-0.1,0.6c-0.8,1.4,0.1,3.2,1.7,3c0.9-0.1,1.6-0.9,2.5-1.4
			c0.1,0,0.2-0.1,0.3-0.1c0.9,0,2.6,3.2,2.6,3.8c4.5,1.2,6.7,2.9,6.7,5.2v4.6C71.2,55,75.3,58.6,75.3,62.9L75.3,62.9z M55.6,40.4
			c0.2,0.2,0.5,0.1,0.8-0.1c0.4-0.3,1-0.8,1.5-1c0.1,0,0.2-0.1,0.2-0.1c0.7-0.2,1.2,0.3,1.7,0.6c0.5,0.3,1-0.2,0.9-0.8
			c-0.7-2.5-2-4.8-3.6-6.7c-0.6-0.8-3.8-4.7-4.8-3.2c-0.4,0.6-0.9,1-1.2,1.7c0,0.1-0.1,0.2,0,0.3c0,0.1,0.2,0.2,0.3,0.2
			c0.7,0.3,1.5,0.1,2.2,0.6c0.9,0.5,1.2,1.9,0.5,2.7c-0.4,0.6-0.9,1.1-1.3,1.7c0,0.1-0.1,0.1-0.1,0.2c0,0.2,0.3,0.4,0.5,0.4
			c0.4,0,0.8,0,1.3,0c1.3,0.1,2.2,1.5,1.5,2.8C55.6,39.9,55.4,40.2,55.6,40.4L55.6,40.4z M23.4,31.9c0.7-0.4,1.5-0.3,2.2-0.6
			c0.1,0,0.2-0.1,0.3-0.2c0-0.1,0-0.2,0-0.3c-0.3-0.7-0.8-1.1-1.2-1.7c-1.1-1.5-4.2,2.5-4.8,3.2c-1.6,2-2.9,4.2-3.6,6.7
			c-0.2,0.5,0.4,1,0.9,0.8c0.6-0.3,1.1-0.7,1.7-0.6c0.1,0,0.2,0,0.2,0.1c0.5,0.2,1.1,0.7,1.5,1c0.2,0.2,0.6,0.3,0.8,0.1
			c0.2-0.2,0-0.5-0.2-0.8c-0.7-1.3,0.2-2.7,1.5-2.8c0.4,0,0.8,0,1.3,0c0.2,0,0.5-0.1,0.5-0.4c0-0.1-0.1-0.1-0.1-0.2
			c-0.4-0.6-0.9-1.1-1.3-1.7C22.2,33.7,22.5,32.4,23.4,31.9L23.4,31.9z M3.1,27.7c-0.8-0.4-1.7-0.1-2.1,0.6
			c-0.4,0.8-0.1,1.7,0.6,2.1l6.9,3.8c0.2,0.1,0.5,0.2,0.8,0.2c0.6,0,1.1-0.3,1.4-0.8c0.4-0.8,0.1-1.7-0.6-2.1L3.1,27.7z M16.2,25.4
			c0.4,0,0.7-0.1,1-0.4c0.7-0.6,0.7-1.6,0.2-2.2L10.7,15c-0.6-0.7-1.6-0.7-2.2-0.2c-0.7,0.6-0.7,1.6-0.2,2.2l6.6,7.8
			C15.3,25.2,15.7,25.4,16.2,25.4L16.2,25.4z M26.8,18.6c0.8-0.3,1.2-1.3,0.8-2.1L23,5.5c-0.3-0.8-1.3-1.2-2.1-0.9
			c-0.8,0.3-1.2,1.3-0.8,2.1l4.6,11.1c0.3,0.6,0.8,1,1.5,1C26.4,18.7,26.6,18.7,26.8,18.6L26.8,18.6z M66,34.5
			c0.3,0,0.5-0.1,0.8-0.2l6.9-3.8c0.8-0.4,1-1.4,0.6-2.1c-0.4-0.8-1.4-1-2.1-0.6l-6.9,3.8c-0.8,0.4-1,1.4-0.6,2.1
			C64.9,34.2,65.4,34.5,66,34.5L66,34.5z M66.8,14.8c-0.7-0.6-1.7-0.5-2.2,0.2l-6.6,7.8c-0.6,0.7-0.5,1.7,0.2,2.2
			c0.3,0.3,0.7,0.4,1,0.4c0.4,0,0.9-0.2,1.2-0.6l6.6-7.8C67.5,16.4,67.4,15.4,66.8,14.8L66.8,14.8z M54.3,4.6
			c-0.8-0.3-1.7,0-2.1,0.9l-4.6,11.1c-0.3,0.8,0,1.7,0.8,2.1c0.2,0.1,0.4,0.1,0.6,0.1c0.6,0,1.2-0.4,1.5-1l4.6-11.1
			C55.5,5.9,55.1,5,54.3,4.6L54.3,4.6z M38.2,0c0.9,0,1,0.7,1,1.6v13.3c0,0.9-0.1,1.6-1,1.6c-0.9,0-1-0.7-1-1.6V1.6
			C37.2,0.7,37.3,0,38.2,0L38.2,0z"/>
	</g>
</g>
</svg>
