<?xml version="1.0" encoding="utf-8"?>
<!-- Generator: Adobe Illustrator 20.1.0, SVG Export Plug-In . SVG Version: 6.00 Build 0)  -->
<svg version="1.1" xmlns="http://www.w3.org/2000/svg" xmlns:xlink="http://www.w3.org/1999/xlink" x="0px" y="0px"
	 viewBox="0 0 73.6 63" style="enable-background:new 0 0 73.6 63;" xml:space="preserve">
<style type="text/css">
	.st0{display:none;}
	.st1{fill:#258AD6;}
</style>
<g id="BG">
</g>
<g id="Layer_3" class="st0">
</g>
<g id="Navbar">
</g>
<g id="Solid_Layer">
</g>
<g id="Forms__x26__Text">
	<g>
		<path class="st1" d="M14,43c0.2,0.2,0.4,0.3,0.7,0.3c0.2,0,0.4-0.1,0.6-0.2c1.6-1.3,3.5-2,5.6-2c2.1,0,4,0.7,5.6,2
			c0.4,0.3,0.9,0.2,1.2-0.1c0.3-0.4,0.2-0.9-0.1-1.2c-0.5-0.4-1.1-0.8-1.7-1.1c0.7-0.5,0.9-1.5,0.5-2.3c-0.9-1.9-3.1-3.2-5.2-3.2
			c-2.1,0-5.6,1.8-5.4,4.3c0,0.4,0.2,0.7,0.5,0.9c-0.8,0.4-1.6,0.8-2.3,1.4C13.7,42.1,13.7,42.6,14,43 M47,43
			c0.3,0.4,0.9,0.4,1.2,0.1c1.6-1.3,3.5-1.9,5.6-1.9c2.1,0,4,0.7,5.6,2c0.2,0.1,0.4,0.2,0.6,0.2c0.3,0,0.5-0.1,0.7-0.3
			c0.3-0.4,0.2-0.9-0.1-1.2c-0.7-0.5-1.4-1-2.2-1.4c0.4-0.4,0.6-1.1,0.3-1.7c-0.9-2.1-2.9-3.5-5.3-3.5c-2.4,0-4.4,1.4-5.3,3.5
			c-0.3,0.8,0,1.6,0.7,2c-0.6,0.3-1.1,0.7-1.6,1.1C46.8,42.1,46.7,42.6,47,43 M67.5,28.8v-4.4c0-2.2-2.7-3.9-7.1-5.1
			c0-0.6-0.4-1.1-0.5-1.3c-0.3-0.8-1.4-2.4-2.3-2.4c-0.1,0-0.3,0-0.4,0.1c-0.8,0.4-1.5,1.2-2.4,1.3c-1.6,0.2-2.5-1.6-1.7-2.9
			c0.1-0.2,0.2-0.4,0.1-0.6c-0.1-0.1-0.2-0.2-0.4-0.2c-0.6,0-1.3,0.1-1.9-0.2c-2.4-1-0.2-3.3,0.6-4.5c0-0.1,0.1-0.1,0.1-0.2
			c0-0.2-0.2-0.3-0.3-0.3C50.5,8,49.7,8,49.1,7.7C48.2,7.1,48,5.9,48.6,5l0.9-1.3c0.4-0.5,0.2-1.3-0.3-1.6c-0.6-0.3-1.4-0.6-2.1-0.8
			c-0.5-0.2-1,0.3-0.9,0.9l0,0.1c0.2,1.2-0.5,2.1-1.4,2.7c-0.3,0.2-0.5,0.3-0.7,0.6c-0.2,0.2-0.3,0.6-0.2,0.9
			c0.1,0.2,0.3,0.4,0.5,0.5c0.6,0.4,1.3,0.7,1.7,1.3c1.1,1.4-0.5,2.6-1.6,3.3c-0.3,0.2-0.7,0.6-0.7,1c0,0.5,0.5,0.8,0.9,1.1
			c0.5,0.5,0.7,1.2,0.7,1.9c0,0.4-0.2,0.8-0.4,1.1c-0.2,0.2-0.4,0.4-0.7,0.4c-0.5,0.1-1.5-0.3-1.1-0.9c0.2-0.3,0.9-0.7,0.7-1.2
			c-0.2-0.6-0.9-0.8-1.2-1.3c-0.5-0.8-0.4-1.9,0.1-2.6c0.3-0.4,0.7-0.7,1.1-0.9c0.2-0.1,0.5-0.3,0.6-0.5c0.6-1-1.5-1.8-1.8-2.4
			c-0.3-0.6-0.4-1.3-0.2-2c0.2-0.7,0.8-1.1,1.4-1.5c0.4-0.3,0.9-0.6,0.9-1.2c0-0.2-0.1-0.5-0.2-0.7c-0.7-1.1-2.8-2.7-4.2-1.8
			C38.6,1.5,38.1,10.7,39,17c-0.9,0-1.8,0-2.7,0c-7.5,0-14,0.5-19.2,1.5c-4.3,0.8-9.6,2.3-9.6,5.9V29c-6,0.7-7.5,4.2-7.5,8.5
			c0,4.2,2.8,7.7,6.9,8.4c0.7,5.1,4.8,9,10.1,9h11.6c0.9,0,1.5-0.6,1.5-1.5s-0.7-1.5-1.5-1.5H17c-3.9,0-6.4-3-6.4-6.9v-6.7
			c0-0.9-0.6-1.5-1.5-1.5c-0.9,0-1.5,0.7-1.5,1.5v4.5c-2-0.7-4.5-2.8-4.5-5.3c0-3,2.7-5.5,5.7-5.5c0.9,0,1.8-0.7,1.8-1.5v-6
			c0,0,0-1.6,7.1-2.9c5-0.9,11.6-1.4,18.9-1.4c7.3,0,14.8,0.5,19.8,1.4c7.1,1.3,8.2,2.9,8.2,2.9v6c0,0.9,0.1,1.5,0.9,1.5
			c3,0,5.8,2.5,5.8,5.5c0,2.5-1.7,4.6-3.7,5.3v-4.5c0-0.9-0.6-1.5-1.5-1.5c-0.9,0-1.5,0.7-1.5,1.5V45c-2,3.8-4.7,6.9-8.6,6.9H43.5
			V39.4c0-2.1-0.8-4-2.3-5.4c-0.6-0.6-1.6-0.5-2.1,0.2c-0.6,0.6-0.5,1.6,0.1,2.2c0.9,0.8,1.3,1.9,1.3,3v16.5c0,2.2-1.7,4-3.9,4
			c-1.3,0-2.5-0.6-3.2-1.7c-0.2-0.3-0.4-0.5-0.7-0.6c-0.5-0.2-1-0.1-1.4,0.2c-0.7,0.5-0.8,1.5-0.3,2.2c1.3,1.8,3.4,2.9,5.6,2.9
			c3.9,0,7-3.2,7-7.1v-1h12.4c5.3,0,9.6-3.9,10.3-9c4.1-0.7,7.3-4.2,7.3-8.5c0-4.2-1.7-7.9-6.5-8.6 M49.7,5.9
			c0.3-0.7,0.8-1.1,1.2-1.7c1.1-1.5,4.1,2.4,4.8,3.2c1.6,1.9,2.9,4.2,3.6,6.6c0.2,0.5-0.4,1-0.8,0.8c-0.6-0.3-1.1-0.7-1.7-0.6
			c-0.1,0-0.2,0-0.2,0.1c-0.5,0.2-1.1,0.7-1.5,1c-0.2,0.2-0.6,0.3-0.8,0.1c-0.2-0.2,0-0.5,0.2-0.8c0.7-1.2-0.2-2.6-1.5-2.8
			c-0.4,0-0.8,0-1.2,0c-0.2,0-0.5-0.1-0.5-0.4c0-0.1,0.1-0.1,0.1-0.2c0.4-0.6,0.9-1.1,1.3-1.7C53.2,8.8,53,7.5,52.1,7
			c-0.7-0.4-1.4-0.3-2.1-0.5c-0.1,0-0.2-0.1-0.3-0.2C49.7,6.1,49.7,6,49.7,5.9"/>
	</g>
</g>
</svg>
