<?xml version="1.0" encoding="utf-8"?>
<!-- Generator: Adobe Illustrator 20.1.0, SVG Export Plug-In . SVG Version: 6.00 Build 0)  -->
<svg version="1.1" xmlns="http://www.w3.org/2000/svg" xmlns:xlink="http://www.w3.org/1999/xlink" x="0px" y="0px"
	 viewBox="0 0 76.3 85.6" style="enable-background:new 0 0 76.3 85.6;" xml:space="preserve">
<style type="text/css">
	.st0{display:none;}
	.st1{fill:#258AD6;}
</style>
<g id="BG">
</g>
<g id="Layer_3" class="st0">
</g>
<g id="Navbar">
</g>
<g id="Solid_Layer">
</g>
<g id="Forms__x26__Text">
	<g>
		<g>
			<path class="st1" d="M33.5,29.4c0,2.3,1.8,4.1,4.1,4.1c2.3,0,4.1-1.8,4.1-4.1s-1.8-4.1-4.1-4.1C35.3,25.2,33.5,27.1,33.5,29.4
				L33.5,29.4z M37.9,22.1c0,0.1,0.1,0.1,0.1,0.1c0.1,0,0.2,0,0.3-0.1L43.6,8c0.5-1.3,0.5-2.8,0-4.2c-1.2-3-4.6-4.6-7.6-3.4
				c-3,1.2-4.6,4.6-3.4,7.6L37.9,22.1z M60.5,50c0.2-0.4,0.1-1-0.4-1.2c-0.4-0.2-1-0.1-1.2,0.4c-1,1.9-2.5,3.3-4.4,4.2
				c-1.9,0.9-4,1.1-6.1,0.5c-0.5-0.1-1,0.2-1.1,0.7c-0.1,0.5,0.2,1,0.7,1.1c0.9,0.2,1.8,0.3,2.8,0.3c0.5,0,1,0,1.5-0.1
				c-1.1,0.6-2,0.9-2.5,2.1c-0.5,1.1,0.4,1.6,1.6,1.6h7.7c1.2,0,2-0.5,1.6-1.6c-0.9-2.1-3-3.3-5.5-3.3c0,0-0.1,0.2-0.1,0.2
				c0.1,0,0.1,0,0.2,0C57.5,53.9,59.3,52.2,60.5,50L60.5,50z M76.3,59.3c0,4.4-3.5,7.7-7.7,8.4c-0.7,5.2-5.5,8.9-11,8.9H45.7v1.7
				c0,4-3.6,7.3-7.6,7.3c-2.3,0-4.7-1.1-6.1-3c-0.5-0.7-0.4-1.7,0.3-2.2c0.4-0.3,0.9-0.4,1.4-0.2c0.3,0.1,0.6,0.3,0.8,0.6
				c0.8,1.1,1.4,1.7,2.7,1.7c2.3,0,3.5-1.8,3.5-4.1v-17c0-1.2,0.1-2.3-0.8-3.1c-0.7-0.6-0.4-1.6,0.1-2.2c0.6-0.7,2-0.7,2.7-0.2
				c1.6,1.4,3,3.4,3,5.5v12.3h11.9c4,0,7.1-2.6,7.1-6.6v-6.9c0-0.9,1.6-1.6,2.5-1.6c0.9,0,2.5,0.7,2.5,1.6v4.6
				c0-0.7,3.4-2.9,3.4-5.4c0-3.1-3.1-5.7-6.3-5.7c-0.9,0-2.2-0.7-2.2-1.6v-6.2c0,0-0.3-1.6-7.6-3c-5.2-0.9-12.3-1.5-19.8-1.5
				c-7.1,0-13.7,0.5-18.8,1.3c1.3,2.6,3.4,4.6,5.9,6c2.8,1.5,6,2,9.2,1.4c0.8-0.1,1.5,0.3,1.6,1.1c0.1,0.7-0.3,1.5-1.1,1.6
				c-1,0.2-2.1,0.3-3.1,0.3c-0.6,0-1.2,0-1.7-0.1c1.7,0.9,3.1,2.2,3.9,3.9c0.8,1.8,0,4-2.2,4c-2.8,0-13.8,1.6-14.2-2.3
				c-0.4-3.9,5-6.6,8.2-6.7c-0.6-0.2-1.2-0.5-1.8-0.8c-3.3-1.7-5.5-4.5-7-7.9c-5.4,1.2-5.4,2.6-5.4,2.6V52c0,0.9-1.1,1.6-2,1.6
				c-3.1,0-5.4,2.5-5.4,5.7c0,2.6,2.4,4.8,4.4,5.4v-4.6c0-0.9,0.6-1.6,1.5-1.6c0.9,0,1.5,0.7,1.5,1.6V67c0,3.9,2.8,6.6,6.8,6.6h12
				c0.9,0,1.6,0.6,1.6,1.5l0,0c0,0.9-0.7,1.5-1.6,1.5h-12c-5.4,0-9.9-3.7-10.6-8.9C2.7,67,0,63.5,0,59.1c0-4.3,2.7-7.8,7.7-8.5v-4.7
				c0-3.8,5.5-5.3,9.9-6.1c5.3-1,12.3-1.5,20-1.5c7.8,0,15.6,0.5,21,1.5c7.2,1.3,11,3.3,11,6.1v4.7C71.7,51.3,76.3,54.9,76.3,59.3
				L76.3,59.3z"/>
		</g>
	</g>
</g>
</svg>
